<svg version="1.1" viewBox="0.0 0.0 414.501312335958 414.5853018372703" fill="none" stroke="none" stroke-linecap="square" stroke-miterlimit="10" xmlns:xlink="http://www.w3.org/1999/xlink" xmlns="http://www.w3.org/2000/svg"><clipPath id="p.0"><path d="m0 0l414.5013 0l0 414.5853l-414.5013 0l0 -414.5853z" clip-rule="nonzero"/></clipPath><g clip-path="url(#p.0)"><path fill="#000000" fill-opacity="0.0" d="m0 0l414.5013 0l0 414.5853l-414.5013 0z" fill-rule="evenodd"/><defs><radialGradient id="p.1" gradientUnits="userSpaceOnUse" gradientTransform="matrix(14.247463555632514 -0.001566516062065335 0.001566516062065335 14.247463555632514 0.0 0.0)" spreadMethod="pad" cx="11.02441903970039" cy="11.175249609086086" fx="11.02441903970039" fy="11.175249609086086" r="14.24746322631836"><stop offset="0.0" stop-color="#ffff00"/><stop offset="1.0" stop-color="#ff9900"/></radialGradient></defs><path fill="url(#p.1)" d="m300.31586 159.18594l-57.798584 20.649033l0 -41.285355zm-41.9606 -101.71069l-26.328033 55.649918l-29.068115 -29.189575zm-101.267746 -42.116077l20.55455 58.044178l-41.109085 0.0045166016zm-101.281006 42.138348l55.40942 26.448158l-29.068123 29.195969zm-41.94734 101.71992l57.79859 -20.649033l0 41.28537zm41.94734 101.69739l26.341297 -55.636612l29.068123 29.189575zm101.281006 42.129395l-20.554535 -58.04419l41.109085 -0.0045166016zm101.267746 -42.151672l-55.39615 -26.434845l29.068115 -29.195969zm-172.88191 -101.68298l0 0c0 -39.721016 32.06276 -71.92478 71.61417 -71.92913c39.551422 -0.004348755 71.61418 32.192368 71.61418 71.91338c0 39.72101 -32.06276 71.92479 -71.61418 71.92914c-39.551407 0.004348755 -71.61417 -32.192368 -71.61417 -71.91339z" fill-rule="evenodd"/><defs><linearGradient id="p.2" gradientUnits="userSpaceOnUse" gradientTransform="matrix(19.545878716929558 1.4114854467332658 -1.4114854467332658 19.545878716929558 0.0 0.0)" spreadMethod="pad" x1="1.7654170894507042" y1="19.583636947007008" x2="21.31129580638026" y2="19.583636947007008"><stop offset="0.0" stop-color="#ffffff"/><stop offset="1.0" stop-color="#d9d9d9"/></linearGradient></defs><path fill="url(#p.2)" d="m54.451035 210.22302l0 0c-1.5342369 -21.566803 10.092415 -41.967346 29.946342 -52.54492c19.853928 -10.577576 44.45318 -9.477112 63.359383 2.8344269l0 0c7.872452 -11.906921 21.259323 -19.55362 36.11133 -20.627106c14.85202 -1.0735016 29.424744 4.5522766 39.310226 15.175659l0 0c6.7554474 -10.823181 18.969864 -17.54068 32.308945 -17.768799c13.339066 -0.22810364 25.914993 6.065445 33.265182 16.6474l0 0c11.597748 -11.152115 29.04184 -14.940552 44.78412 -9.726013c15.74231 5.2145386 26.955353 18.495468 28.7872 34.096054l0 0c12.908722 4.337311 23.243134 13.739838 28.33316 25.778275c5.090027 12.038452 4.436371 25.531876 -1.7921448 36.994003l0 0c11.80246 16.851288 13.30014 38.277924 3.9341736 56.283813c-9.365967 18.00592 -28.188477 29.885956 -49.4433 31.206665c-1.4085388 17.432251 -12.6970215 32.706024 -29.514404 39.934143c-16.817352 7.228119 -36.537506 5.2818604 -51.559418 -5.088562l0 0c-8.192093 20.408386 -28.112473 34.421448 -51.1548 35.984985c-23.042328 1.5635681 -45.07582 -9.602661 -56.581177 -28.674469l0 0c-16.356369 7.8098755 -35.393417 9.0251465 -52.816772 3.371704c-17.423363 -5.653412 -31.765366 -17.699371 -39.790756 -33.42047l0 0c-16.181969 0.6143799 -31.136454 -8.359497 -37.4416 -22.467926c-6.3051453 -14.108429 -2.6187363 -30.348083 9.229675 -40.65927l0 0c-13.745506 -8.992004 -19.911816 -25.3107 -15.283442 -40.44655c4.628374 -15.135864 19.002626 -25.659027 35.627144 -26.082077z" fill-rule="evenodd"/><path fill="#000000" fill-opacity="0.0" d="m33.73056 277.55136l0 0c6.4865456 4.243347 14.17038 6.51062 22.019821 6.497406m6.188488 56.63092c3.384426 -0.12850952 6.7322807 -0.6764221 9.957241 -1.6296082m82.64567 31.677063c-2.1199799 -3.5141602 -3.839035 -7.229889 -5.1279144 -11.083893m112.86803 3.7730408l0 0c1.4935303 -3.7207336 2.5661316 -7.5837708 3.1999207 -11.524567m77.87085 -23.319763c1.4996033 -18.559326 -8.443695 -36.36966 -25.55896 -45.780884m71.067566 -41.707672c-3.3237915 6.1166534 -8.105713 11.410248 -13.970886 15.465759m-12.567322 -78.23949l0 0c0.3039856 2.5889282 0.34280396 5.197281 0.115875244 7.78891m-73.685974 -32.15808l0 0c-2.8930664 2.7818909 -5.3396606 5.947418 -7.263672 9.397995m-58.31099 -8.277954l0 0c-1.6224365 2.5993805 -2.8947754 5.382065 -3.7877045 8.283951m-71.634964 -2.832367l0 0c4.000534 2.6051178 7.6552277 5.6568604 10.883774 9.088181m-104.18837 40.62271l0 0c0.21146011 2.972458 0.67147446 5.926422 1.3757439 8.834213" fill-rule="evenodd"/><path stroke="#efefef" stroke-width="1.0" stroke-linejoin="round" stroke-linecap="butt" d="m54.451035 210.22302l0 0c-1.5342369 -21.566803 10.092415 -41.967346 29.946342 -52.54492c19.853928 -10.577576 44.45318 -9.477112 63.359383 2.8344269l0 0c7.872452 -11.906921 21.259323 -19.55362 36.11133 -20.627106c14.85202 -1.0735016 29.424744 4.5522766 39.310226 15.175659l0 0c6.7554474 -10.823181 18.969864 -17.54068 32.308945 -17.768799c13.339066 -0.22810364 25.914993 6.065445 33.265182 16.6474l0 0c11.597748 -11.152115 29.04184 -14.940552 44.78412 -9.726013c15.74231 5.2145386 26.955353 18.495468 28.7872 34.096054l0 0c12.908722 4.337311 23.243134 13.739838 28.33316 25.778275c5.090027 12.038452 4.436371 25.531876 -1.7921448 36.994003l0 0c11.80246 16.851288 13.30014 38.277924 3.9341736 56.283813c-9.365967 18.00592 -28.188477 29.885956 -49.4433 31.206665c-1.4085388 17.432251 -12.6970215 32.706024 -29.514404 39.934143c-16.817352 7.228119 -36.537506 5.2818604 -51.559418 -5.088562l0 0c-8.192093 20.408386 -28.112473 34.421448 -51.1548 35.984985c-23.042328 1.5635681 -45.07582 -9.602661 -56.581177 -28.674469l0 0c-16.356369 7.8098755 -35.393417 9.0251465 -52.816772 3.371704c-17.423363 -5.653412 -31.765366 -17.699371 -39.790756 -33.42047l0 0c-16.181969 0.6143799 -31.136454 -8.359497 -37.4416 -22.467926c-6.3051453 -14.108429 -2.6187363 -30.348083 9.229675 -40.65927l0 0c-13.745506 -8.992004 -19.911816 -25.3107 -15.283442 -40.44655c4.628374 -15.135864 19.002626 -25.659027 35.627144 -26.082077z" fill-rule="evenodd"/><path stroke="#efefef" stroke-width="1.0" stroke-linejoin="round" stroke-linecap="butt" d="m33.73056 277.55136l0 0c6.4865456 4.243347 14.17038 6.51062 22.019821 6.497406m6.188488 56.63092c3.384426 -0.12850952 6.7322807 -0.6764221 9.957241 -1.6296082m82.64567 31.677063c-2.1199799 -3.5141602 -3.839035 -7.229889 -5.1279144 -11.083893m112.86803 3.7730408l0 0c1.4935303 -3.7207336 2.5661316 -7.5837708 3.1999207 -11.524567m77.87085 -23.319763c1.4996033 -18.559326 -8.443695 -36.36966 -25.55896 -45.780884m71.067566 -41.707672c-3.3237915 6.1166534 -8.105713 11.410248 -13.970886 15.465759m-12.567322 -78.23949l0 0c0.3039856 2.5889282 0.34280396 5.197281 0.115875244 7.78891m-73.685974 -32.15808l0 0c-2.8930664 2.7818909 -5.3396606 5.947418 -7.263672 9.397995m-58.31099 -8.277954l0 0c-1.6224365 2.5993805 -2.8947754 5.382065 -3.7877045 8.283951m-71.634964 -2.832367l0 0c4.000534 2.6051178 7.6552277 5.6568604 10.883774 9.088181m-104.18837 40.62271l0 0c0.21146011 2.972458 0.67147446 5.926422 1.3757439 8.834213" fill-rule="evenodd"/></g></svg>