<svg version="1.1" viewBox="0.0 0.0 414.501312335958 414.5853018372703" fill="none" stroke="none" stroke-linecap="square" stroke-miterlimit="10" xmlns:xlink="http://www.w3.org/1999/xlink" xmlns="http://www.w3.org/2000/svg"><clipPath id="p.0"><path d="m0 0l414.5013 0l0 414.5853l-414.5013 0l0 -414.5853z" clip-rule="nonzero"/></clipPath><g clip-path="url(#p.0)"><path fill="#000000" fill-opacity="0.0" d="m0 0l414.5013 0l0 414.5853l-414.5013 0z" fill-rule="evenodd"/><defs><linearGradient id="p.1" gradientUnits="userSpaceOnUse" gradientTransform="matrix(19.54588028646734 1.4114855600629372 -1.4114855600629372 19.54588028646734 0.0 0.0)" spreadMethod="pad" x1="1.3833675126041853" y1="15.43180752279375" x2="20.92924779907153" y2="15.43180752279375"><stop offset="0.0" stop-color="#ffffff"/><stop offset="1.0" stop-color="#d9d9d9"/></linearGradient></defs><path fill="url(#p.1)" d="m54.695236 102.88477l0 0c-1.311985 -24.65001 10.534683 -48.10274 30.513031 -60.406334c19.978348 -12.303591 44.584595 -11.300261 63.37741 2.58424l0 0c8.001694 -13.6996155 21.477768 -22.58405 36.35202 -23.965929c14.874237 -1.3818798 29.399597 4.901102 39.182434 16.948462l0 0c6.8726196 -12.448555 19.165756 -20.258108 32.517166 -20.657421c13.35141 -0.39931297 25.871552 6.668125 33.117645 18.694424l0 0c11.721924 -12.875029 29.218292 -17.388872 44.918365 -11.588369c15.700043 5.8005047 26.783905 20.873533 28.455536 38.696907l0 0c12.873444 4.8266068 23.118195 15.47303 28.087341 29.188576c4.969116 13.715538 4.175171 29.154732 -2.1766968 42.32859l0 0c11.636719 19.15033 12.913574 43.640396 3.354065 64.33093c-9.559479 20.690536 -28.519135 34.473022 -49.803528 36.204086c-1.5901489 19.951874 -13.045319 37.537613 -29.950134 45.978928c-16.904816 8.441315 -36.619568 6.4200134 -51.545288 -5.2847595l0 0c-8.409622 23.426086 -28.490051 39.659485 -51.56581 41.68686c-23.07576 2.0273438 -45.01007 -10.514832 -56.326477 -32.207825l0 0c-16.449509 9.101868 -35.513382 10.689331 -52.891212 4.404297c-17.37783 -6.285034 -31.60579 -19.913116 -39.47433 -37.810074l0 0c-16.20044 0.87060547 -31.073153 -9.23761 -37.23687 -25.307999c-6.1637173 -16.070374 -2.3063316 -34.6819 9.657751 -46.597763l0 0c-13.662642 -10.1414795 -19.664526 -28.74118 -14.875904 -46.100067c4.788624 -17.358887 19.282635 -29.54338 35.923973 -30.199745z" fill-rule="evenodd"/><path fill="#000000" fill-opacity="0.0" d="m33.261833 180.10315l0 0c6.447441 4.7858124 14.113537 7.2991486 21.968987 7.202591m5.6065025 64.70448c3.3882866 -0.18208313 6.7443275 -0.84347534 9.981571 -1.9670868m82.37935 35.371384c-2.085144 -3.9971313 -3.7670135 -8.228973 -5.016922 -12.623413m112.913345 3.143982l0 0c1.5332031 -4.2709045 2.646637 -8.700165 3.3217163 -13.213837m78.170654 -27.478867c1.6929932 -21.241852 -8.073242 -41.508316 -25.10382 -52.09433m71.552734 -48.43849c-3.389618 7.0301056 -8.22998 13.134003 -14.141541 17.83313m-11.766266 -89.35199l0 0c0.2774048 2.9577904 0.2892151 5.940563 0.03527832 8.906963m-73.40799 -36.014526l0 0c-2.9240417 3.2116814 -5.4052734 6.8574753 -7.366455 10.823868m-58.26886 -8.862396l0 0c-1.6505737 2.9897385 -2.9526978 6.1854973 -3.8763428 9.513649m-71.65921 -2.496006l0 0c3.9765472 2.937954 7.602356 6.390297 10.797775 10.281193m-104.6871 47.54133l0 0c0.18082428 3.3974075 0.61058426 6.7710724 1.2852592 10.089409" fill-rule="evenodd"/><path stroke="#efefef" stroke-width="1.0" stroke-linejoin="round" stroke-linecap="butt" d="m54.695236 102.88477l0 0c-1.311985 -24.65001 10.534683 -48.10274 30.513031 -60.406334c19.978348 -12.303591 44.584595 -11.300261 63.37741 2.58424l0 0c8.001694 -13.6996155 21.477768 -22.58405 36.35202 -23.965929c14.874237 -1.3818798 29.399597 4.901102 39.182434 16.948462l0 0c6.8726196 -12.448555 19.165756 -20.258108 32.517166 -20.657421c13.35141 -0.39931297 25.871552 6.668125 33.117645 18.694424l0 0c11.721924 -12.875029 29.218292 -17.388872 44.918365 -11.588369c15.700043 5.8005047 26.783905 20.873533 28.455536 38.696907l0 0c12.873444 4.8266068 23.118195 15.47303 28.087341 29.188576c4.969116 13.715538 4.175171 29.154732 -2.1766968 42.32859l0 0c11.636719 19.15033 12.913574 43.640396 3.354065 64.33093c-9.559479 20.690536 -28.519135 34.473022 -49.803528 36.204086c-1.5901489 19.951874 -13.045319 37.537613 -29.950134 45.978928c-16.904816 8.441315 -36.619568 6.4200134 -51.545288 -5.2847595l0 0c-8.409622 23.426086 -28.490051 39.659485 -51.56581 41.68686c-23.07576 2.0273438 -45.01007 -10.514832 -56.326477 -32.207825l0 0c-16.449509 9.101868 -35.513382 10.689331 -52.891212 4.404297c-17.37783 -6.285034 -31.60579 -19.913116 -39.47433 -37.810074l0 0c-16.20044 0.87060547 -31.073153 -9.23761 -37.23687 -25.307999c-6.1637173 -16.070374 -2.3063316 -34.6819 9.657751 -46.597763l0 0c-13.662642 -10.1414795 -19.664526 -28.74118 -14.875904 -46.100067c4.788624 -17.358887 19.282635 -29.54338 35.923973 -30.199745z" fill-rule="evenodd"/><path stroke="#efefef" stroke-width="1.0" stroke-linejoin="round" stroke-linecap="butt" d="m33.261833 180.10315l0 0c6.447441 4.7858124 14.113537 7.2991486 21.968987 7.202591m5.6065025 64.70448c3.3882866 -0.18208313 6.7443275 -0.84347534 9.981571 -1.9670868m82.37935 35.371384c-2.085144 -3.9971313 -3.7670135 -8.228973 -5.016922 -12.623413m112.913345 3.143982l0 0c1.5332031 -4.2709045 2.646637 -8.700165 3.3217163 -13.213837m78.170654 -27.478867c1.6929932 -21.241852 -8.073242 -41.508316 -25.10382 -52.09433m71.552734 -48.43849c-3.389618 7.0301056 -8.22998 13.134003 -14.141541 17.83313m-11.766266 -89.35199l0 0c0.2774048 2.9577904 0.2892151 5.940563 0.03527832 8.906963m-73.40799 -36.014526l0 0c-2.9240417 3.2116814 -5.4052734 6.8574753 -7.366455 10.823868m-58.26886 -8.862396l0 0c-1.6505737 2.9897385 -2.9526978 6.1854973 -3.8763428 9.513649m-71.65921 -2.496006l0 0c3.9765472 2.937954 7.602356 6.390297 10.797775 10.281193m-104.6871 47.54133l0 0c0.18082428 3.3974075 0.61058426 6.7710724 1.2852592 10.089409" fill-rule="evenodd"/><path fill="#9fc5e8" d="m322.231 324.44034l0 0c-5.218445 -3.096283 -6.995178 -9.752075 -3.9685059 -14.86615q4.7664185 -8.053619 2.5457458 -20.2529q4.165436 11.723358 12.383392 16.599365l0 0c5.218445 3.096283 6.9952087 9.752075 3.9685059 14.86615l0 0c-3.026703 5.114044 -9.710693 6.749817 -14.929138 3.653534z" fill-rule="evenodd"/><path fill="#9fc5e8" d="m322.231 391.7238l0 0c-5.218445 -3.0962524 -6.995178 -9.752045 -3.9685059 -14.866119q4.7664185 -8.053619 2.5457458 -20.25293q4.165436 11.723389 12.383392 16.599365l0 0c5.218445 3.096283 6.9952087 9.752075 3.9685059 14.86615l0 0c-3.026703 5.1140747 -9.710693 6.749817 -14.929138 3.653534z" fill-rule="evenodd"/><path fill="#9fc5e8" d="m257.62994 398.66867l0 0c-5.218445 -3.0962524 -6.9951935 -9.752075 -3.9685059 -14.866119q4.7664185 -8.053619 2.5457153 -20.25293q4.1654663 11.723389 12.383423 16.599365l0 0c5.218445 3.096283 6.9952087 9.752075 3.9685059 14.86615l0 0c-3.026703 5.1140747 -9.710693 6.749817 -14.929138 3.653534z" fill-rule="evenodd"/><path fill="#9fc5e8" d="m213.252 369.25925l0 0c-5.218445 -3.096283 -6.9952087 -9.752075 -3.9685059 -14.86615q4.7664185 -8.053619 2.5457153 -20.25293q4.165451 11.723389 12.383408 16.599365l0 0c5.218445 3.096283 6.9952087 9.752075 3.9685059 14.86615l0 0c-3.0266876 5.1140747 -9.710693 6.749817 -14.929123 3.6535645z" fill-rule="evenodd"/><path fill="#9fc5e8" d="m367.11288 361.99152l0 0c-5.218445 -3.096283 -6.9952087 -9.752075 -3.9685059 -14.86615q4.7664185 -8.053589 2.5457153 -20.2529q4.1654663 11.723358 12.383423 16.599365l0 0c5.218445 3.096283 6.9952087 9.752075 3.9685059 14.86615l0 0c-3.026703 5.1140747 -9.710693 6.749817 -14.929138 3.653534z" fill-rule="evenodd"/><path fill="#9fc5e8" d="m367.11288 294.70804l0 0c-5.218445 -3.0962524 -6.9952087 -9.752045 -3.9685059 -14.866119q4.7664185 -8.053619 2.5457153 -20.25293q4.1654663 11.723389 12.383423 16.599365l0 0c5.218445 3.096283 6.9952087 9.752075 3.9685059 14.86615l0 0c-3.026703 5.1140747 -9.710693 6.749817 -14.929138 3.653534z" fill-rule="evenodd"/><path fill="#9fc5e8" d="m183.39372 400.9784l0 0c-5.2184296 -3.096283 -6.9951935 -9.752075 -3.9685059 -14.86615q4.7664185 -8.053589 2.5457306 -20.2529q4.165436 11.723358 12.383408 16.599365l0 0c5.218445 3.096283 6.9951935 9.752075 3.9685059 14.86615l0 0c-3.026703 5.114044 -9.710693 6.749817 -14.929138 3.653534z" fill-rule="evenodd"/><path fill="#9fc5e8" d="m153.53546 346.1726l0 0c-5.218445 -3.0962524 -6.9952087 -9.752075 -3.9685059 -14.866119q4.7664185 -8.053619 2.5457153 -20.25293q4.165451 11.723389 12.383423 16.599365l0 0c5.2184296 3.096283 6.9951935 9.752075 3.9684906 14.86615l0 0c-3.0266876 5.1140747 -9.710693 6.749817 -14.929123 3.653534z" fill-rule="evenodd"/><path fill="#9fc5e8" d="m95.06827 337.73953l0 0c-5.218445 -3.0962524 -6.995201 -9.752045 -3.9685059 -14.866119q4.7664185 -8.053619 2.545723 -20.25293q4.1654434 11.723389 12.383408 16.599365l0 0c5.218445 3.096283 6.995201 9.752075 3.9685059 14.86615l0 0c-3.0266953 5.1140747 -9.710693 6.749817 -14.929131 3.653534z" fill-rule="evenodd"/><path fill="#9fc5e8" d="m123.67719 396.00464l0 0c-5.218445 -3.096283 -6.995201 -9.752075 -3.9685059 -14.86615q4.7664185 -8.053589 2.545723 -20.2529q4.1654434 11.723358 12.383408 16.599365l0 0c5.218445 3.096283 6.9951935 9.752075 3.9685059 14.86615l0 0c-3.0266876 5.1140747 -9.710693 6.749817 -14.929131 3.653534z" fill-rule="evenodd"/><path fill="#9fc5e8" d="m272.96854 345.73953l0 0c-5.218445 -3.0962524 -6.9952087 -9.752045 -3.9685059 -14.866119q4.7664185 -8.053619 2.5457153 -20.25293q4.165436 11.723389 12.383423 16.599365l0 0c5.2184143 3.096283 6.995178 9.752075 3.9685059 14.86615l0 0c-3.026703 5.1140747 -9.710693 6.749817 -14.929138 3.653534z" fill-rule="evenodd"/></g></svg>