<svg version="1.1" viewBox="0.0 0.0 414.501312335958 414.5853018372703" fill="none" stroke="none" stroke-linecap="square" stroke-miterlimit="10" xmlns:xlink="http://www.w3.org/1999/xlink" xmlns="http://www.w3.org/2000/svg"><clipPath id="p.0"><path d="m0 0l414.5013 0l0 414.5853l-414.5013 0l0 -414.5853z" clip-rule="nonzero"/></clipPath><g clip-path="url(#p.0)"><path fill="#000000" fill-opacity="0.0" d="m0 0l414.5013 0l0 414.5853l-414.5013 0z" fill-rule="evenodd"/><defs><radialGradient id="p.1" gradientUnits="userSpaceOnUse" gradientTransform="matrix(16.49974896412867 0.0 0.0 16.49974896412867 0.0 0.0)" spreadMethod="pad" cx="12.513512582636391" cy="12.52576123793243" fx="12.513512582636391" fy="12.52576123793243" r="16.49974822998047"><stop offset="0.0" stop-color="#ffff00"/><stop offset="1.0" stop-color="#ff9900"/></radialGradient></defs><path fill="url(#p.1)" d="m399.06824 206.67192l-77.721466 27.612473l0 -55.224945zm-56.424194 -136.05843l-35.403168 74.43565l-39.08777 -39.0494zm-136.17422 -56.35103l27.639587 77.64521l-55.279175 0zm-136.19205 56.35103l74.508766 35.386253l-39.08776 39.0494zm-56.406372 136.05843l77.721466 -27.612473l0 55.224945zm56.406372 136.0406l35.421005 -74.41785l39.08776 39.049408zm136.19205 56.368835l-27.639587 -77.6452l55.279175 0zm136.17422 -56.368835l-74.49094 -35.36844l39.08777 -39.049408zm-232.47345 -136.0406l0 0c0 -53.1324 43.11463 -96.20473 96.29922 -96.20473c53.18457 0 96.299225 43.072327 96.299225 96.20473c0 53.1324 -43.114655 96.20473 -96.299225 96.20473c-53.184586 0 -96.29922 -43.072327 -96.29922 -96.20473z" fill-rule="evenodd"/></g></svg>